<svg width="190" height="32" viewBox="0 0 190 32" fill="none" xmlns="http://www.w3.org/2000/svg">
<path d="M56.4096 25.5969V11.3738H48.8984V8.3623H67.3785V11.3738H59.8661V25.5969H56.4096Z" fill="white"/>
<path d="M78.2379 25.602C76.9231 25.6136 75.6204 25.3834 74.4147 24.9265C73.2582 24.4882 72.2145 23.8521 71.3455 23.0558C70.4765 22.2595 69.7999 21.3193 69.3558 20.2909C68.8669 19.1783 68.6219 17.9958 68.6336 16.8045C68.6169 15.6211 68.8621 14.446 69.3558 13.3435C69.8053 12.3413 70.4912 11.4325 71.3692 10.6758C72.2432 9.93341 73.2804 9.35248 74.4184 8.96789C75.6373 8.55676 76.9348 8.35146 78.2417 8.36296H83.059C84.4032 8.349 85.7381 8.55843 86.9923 8.98001C88.1411 9.3634 89.1843 9.95321 90.0542 10.7111C90.924 11.4689 91.601 12.3779 92.0411 13.3787C92.5245 14.4711 92.7645 15.6338 92.748 16.8045C92.7601 17.9957 92.5156 19.1783 92.0271 20.2909C91.5749 21.3269 90.8899 22.2739 90.0124 23.0765C89.1432 23.8644 88.1022 24.4934 86.9506 24.9265C85.7205 25.3863 84.3936 25.6164 83.0552 25.602H78.2379ZM83.0552 22.5905C83.9146 22.5987 84.7668 22.4536 85.5594 22.1641C86.308 21.8918 86.9843 21.4881 87.5461 20.9781C88.1079 20.4682 88.5432 19.8629 88.8249 19.2C89.1384 18.4808 89.2953 17.717 89.2878 16.9478C89.2963 16.182 89.1392 15.4217 88.8249 14.7065C88.5418 14.0512 88.1059 13.4541 87.5447 12.9529C86.9836 12.4516 86.3093 12.0571 85.5644 11.7942C84.7697 11.512 83.9184 11.3708 83.0603 11.3788H78.2379C77.3934 11.3714 76.5558 11.5127 75.7755 11.7942C75.0434 12.058 74.381 12.4495 73.8291 12.9446C73.2735 13.4498 72.8384 14.0461 72.5492 14.6988C72.2325 15.4176 72.0754 16.1823 72.0863 16.9522C72.0787 17.7214 72.2357 18.4852 72.5492 19.2044C72.8356 19.8692 73.2706 20.4778 73.8291 20.995C74.3798 21.4972 75.042 21.8965 75.7755 22.1685C76.5537 22.4573 77.3921 22.6025 78.2379 22.5949L83.0552 22.5905Z" fill="white"/>
<path d="M113.237 8.14148H116.613V17.7731C116.613 19.1019 116.413 20.26 116.013 21.2473C115.646 22.195 114.998 23.0415 114.135 23.7012C113.283 24.3499 112.181 24.8321 110.829 25.148C109.478 25.4639 107.84 25.6222 105.917 25.6229C104.012 25.6229 102.383 25.4646 101.032 25.148C99.68 24.8314 98.5776 24.3491 97.7244 23.7012C96.8618 23.0412 96.214 22.1948 95.8463 21.2473C95.4466 20.2534 95.2472 19.0953 95.248 17.7731V8.14148H98.8133V17.7731C98.7939 18.5286 98.9178 19.2818 99.1801 20.0022C99.4074 20.5961 99.8226 21.122 100.378 21.5195C100.932 21.914 101.671 22.2023 102.596 22.3845C103.521 22.5666 104.664 22.6577 106.026 22.6577C107.387 22.6577 108.53 22.5666 109.455 22.3845C110.38 22.2023 111.119 21.914 111.673 21.5195C112.228 21.1214 112.643 20.5952 112.871 20.0011C113.116 19.3855 113.238 18.6425 113.237 17.772V8.14148Z" fill="white"/>
<path d="M128.779 25.6018C127.464 25.6134 126.161 25.3832 124.956 24.9263C123.799 24.488 122.756 23.8519 121.887 23.0556C121.018 22.2593 120.341 21.3191 119.897 20.2907C119.408 19.1781 119.163 17.9956 119.175 16.8043C119.158 15.6209 119.403 14.4458 119.897 13.3433C120.346 12.3411 121.032 11.4323 121.91 10.6756C122.784 9.93321 123.821 9.35229 124.959 8.9677C126.178 8.55656 127.476 8.35127 128.783 8.36276H139.506V11.3742H128.783C127.938 11.3668 127.101 11.5081 126.32 11.7896C125.588 12.0534 124.926 12.4448 124.374 12.94C123.818 13.4452 123.383 14.0415 123.094 14.6942C122.778 15.4131 122.621 16.1778 122.632 16.9476C122.624 17.7168 122.781 18.4806 123.094 19.1998C123.38 19.8646 123.815 20.4732 124.374 20.9904C124.925 21.4926 125.587 21.8919 126.32 22.1639C127.098 22.4527 127.937 22.5979 128.783 22.5903H139.506V25.6018H128.779Z" fill="white"/>
<path d="M162.934 25.7282L159.968 21.389H150.609L152.242 18.9472H158.313L153.899 12.5056L144.917 25.7282H140.971L152.353 9.22524C152.53 8.94748 152.771 8.705 153.061 8.51342C153.346 8.33575 153.69 8.24405 154.04 8.25227C154.387 8.24267 154.727 8.33462 155.007 8.51342C155.29 8.70806 155.526 8.95006 155.701 9.22524L167.099 25.7282H162.934Z" fill="white"/>
<path d="M172.435 12.9813V25.5913H169.146V9.94451C169.146 9.39137 169.305 8.95282 169.623 8.62886C169.782 8.4678 169.981 8.34036 170.205 8.25618C170.429 8.17199 170.672 8.13327 170.916 8.14293C171.17 8.14308 171.421 8.19159 171.651 8.28507C171.925 8.40457 172.174 8.56491 172.385 8.75889L186.348 20.829V8.21455H189.636V24.0079C189.636 24.5765 189.478 25.0191 189.161 25.3357C189.008 25.4899 188.817 25.6125 188.603 25.6945C188.389 25.7765 188.156 25.8158 187.923 25.8095C187.36 25.8095 186.834 25.5961 186.344 25.1693L172.435 12.9813Z" fill="white"/>
<rect width="32" height="32" rx="16" fill="white"/>
<path d="M10.4209 1.00049C4.33015 3.2624 0 9.11958 0 16.0006C0 22.8815 4.33015 28.7387 10.4209 31.0006V28.6911V1.00049Z" fill="black"/>
<mask id="mask0_1070_4958" style="mask-type:luminance" maskUnits="userSpaceOnUse" x="0" y="1" width="11" height="31">
<path d="M10.4209 1.00049C4.33015 3.2624 0 9.11958 0 16.0006C0 22.8815 4.33015 28.7387 10.4209 31.0006V28.6911V1.00049Z" fill="white"/>
</mask>
<g mask="url(#mask0_1070_4958)">
<path d="M11.3479 16.8573C14.9745 16.8573 17.9145 13.9151 17.9145 10.2858C17.9145 6.6565 14.9745 3.71436 11.3479 3.71436C7.72122 3.71436 4.78125 6.6565 4.78125 10.2858C4.78125 13.9151 7.72122 16.8573 11.3479 16.8573Z" fill="white"/>
</g>
<mask id="mask1_1070_4958" style="mask-type:luminance" maskUnits="userSpaceOnUse" x="0" y="1" width="11" height="31">
<path d="M10.4209 1.00049C4.33015 3.2624 0 9.11958 0 16.0006C0 22.8815 4.33015 28.7387 10.4209 31.0006V28.6911V1.00049Z" fill="white"/>
</mask>
<g mask="url(#mask1_1070_4958)">
<path d="M11.8247 3.02441H9.82617V17.715H11.8247V3.02441Z" fill="black"/>
</g>
<path d="M22.6741 27.8809C22.3411 27.8809 22.0793 27.619 22.0793 27.2856C22.0793 26.9523 22.3411 26.6904 22.6741 26.6904H27.9084C28.4794 26.0475 29.0028 25.3571 29.4787 24.619H20.6756C20.3425 24.619 20.0808 24.357 20.0808 24.0237C20.0808 23.6904 20.3425 23.4285 20.6756 23.4285H30.1686C30.5255 22.7618 30.811 22.0713 31.0727 21.357H18.6771C18.344 21.357 18.0823 21.0951 18.0823 20.7618C18.0823 20.4285 18.344 20.1666 18.6771 20.1666H31.4534C31.8103 18.857 32.0006 17.4761 32.0006 16.0475H13.3477V29.3095C13.3477 30.7857 14.5135 31.9999 15.9886 31.9999H16.0124C20.1284 31.9999 23.8875 30.4285 26.7188 27.8809H22.6741Z" fill="black"/>
<path d="M31.6453 14.8576C30.2178 13.0957 27.9576 12.81 26.9345 12.7624H13.6348V0.500414C14.4199 0.381366 15.205 0.309937 15.9902 0.309937C23.2468 0.309937 29.5041 5.21472 31.2171 12.2624L31.2885 12.5481C31.5026 13.5005 31.6216 14.2862 31.6453 14.8576Z" fill="#F7901E"/>
<path d="M15.9889 0.61905C23.079 0.61905 29.2173 5.4286 30.9065 12.3334L30.9541 12.5477V12.5715C31.0731 13.0953 31.1683 13.5477 31.2158 13.9763C29.7407 12.7382 27.8612 12.5001 26.9333 12.4524H26.9095H26.8857H13.919V0.761908C14.6566 0.666669 15.3227 0.61905 15.9889 0.61905ZM15.9889 0C15.0848 0 14.1807 0.0714289 13.3242 0.238096V13.1191H26.9095C28.0515 13.1667 30.8114 13.5477 31.9772 16.0239C31.9772 16.0239 32.0961 14.7144 31.5727 12.4524C31.5727 12.4286 31.5489 12.381 31.5489 12.3572C31.5489 12.3096 31.5251 12.262 31.5251 12.2143C29.8121 5.1905 23.531 0 15.9889 0Z" fill="black"/>
<path d="M8.04083 7.90523C8.39561 7.90523 8.68321 7.61741 8.68321 7.26237C8.68321 6.90733 8.39561 6.61951 8.04083 6.61951C7.68605 6.61951 7.39844 6.90733 7.39844 7.26237C7.39844 7.61741 7.68605 7.90523 8.04083 7.90523Z" fill="black"/>
<path d="M31.5967 14.9523C31.4301 14.9523 31.2874 14.8094 31.2874 14.6428C31.0733 10.1903 27.4331 6.71414 22.9602 6.71414H13.7527C13.5861 6.71414 13.4434 6.57129 13.4434 6.40462C13.4434 6.23795 13.5861 6.09509 13.7527 6.09509H22.9602C27.7424 6.09509 31.6919 9.85701 31.906 14.6428C31.9298 14.8094 31.8108 14.9523 31.5967 14.9523C31.6205 14.9523 31.6205 14.9523 31.5967 14.9523Z" fill="black"/>
</svg>
